<svg xmlns="http://www.w3.org/2000/svg" viewBox="0 0 126 88"><defs><style>.cls-1{font-size:14px;font-family:MyriadPro-Regular, Myriad Pro;}.cls-2{letter-spacing:0em;}.cls-3{letter-spacing:-0.01em;}.cls-4{letter-spacing:0em;}.cls-5{letter-spacing:-0.01em;}.cls-6{letter-spacing:0.02em;}.cls-7{letter-spacing:-0.01em;}.cls-8{letter-spacing:-0.01em;}.cls-9{letter-spacing:0.01em;}.cls-10{letter-spacing:0em;}.cls-11{fill:#404041;}.cls-12{fill:#ef3b25;}</style></defs><g id="Layer_3" data-name="Layer 3"><text class="cls-1" transform="translate(3.49 67.94)"><tspan class="cls-2">C</tspan><tspan class="cls-3" x="8.08" y="0">r</tspan><tspan x="12.52" y="0">e</tspan><tspan class="cls-4" x="19.53" y="0">a</tspan><tspan x="26.22" y="0">ti</tspan><tspan class="cls-5" x="34.13" y="0">v</tspan><tspan x="40.73" y="0">e pa</tspan><tspan class="cls-6" x="65.42" y="0">r</tspan><tspan x="70.33" y="0">tners </tspan><tspan class="cls-7" x="102.84" y="0">f</tspan><tspan x="106.75" y="0">or </tspan><tspan x="5.15" y="14">a </tspan><tspan class="cls-8" x="14.87" y="14">c</tspan><tspan x="21.06" y="14">onne</tspan><tspan class="cls-9" x="51.3" y="14">c</tspan><tspan class="cls-8" x="57.75" y="14">t</tspan><tspan x="62.3" y="14">ed </tspan><tspan class="cls-3" x="80.18" y="14">w</tspan><tspan x="90.34" y="14">o</tspan><tspan class="cls-10" x="98.03" y="14">r</tspan><tspan x="102.66" y="14">ld</tspan></text></g><g id="Layer_1" data-name="Layer 1"><polyline class="cls-11" points="38.6 37.31 31.53 37.31 31.53 21.62 15.68 21.62 15.68 37.31 8.56 37.31 8.56 0.15 15.68 0.15 15.68 15.03 31.53 15.03 31.53 0.15 38.6 0.15 38.6 37.31"/><path class="cls-11" d="M49.82,26.28a7,7,0,0,0,6.91,5.46,6.42,6.42,0,0,0,5.84-3.21h7.55C68.51,34.15,63.64,38,56.78,38a14.28,14.28,0,0,1-14.13-14.4A14.37,14.37,0,0,1,56.78,9c8.14,0,14.89,6.31,13.87,17.24H49.82m13.82-5.79a6.92,6.92,0,0,0-6.91-5.24,7.06,7.06,0,0,0-6.8,5.24Z"/><path class="cls-11" d="M87.49,42.34c-2.68,7.18-6.91,8.14-12.69,7.77V43.68c3.53.21,5.19-.64,6.37-3.8l.8-2.09L71.32,9.73h7.49l6.75,19.92L92.15,9.73H99.7L87.49,42.34"/><path class="cls-12" d="M99.93,20.65V37.38h7.56a7.78,7.78,0,0,1-1.56,4.46,6.2,6.2,0,0,1-5.08,2h-.92v6.44h1c5.55,0,9.57-1.67,12.13-4.49s3.64-6.67,3.64-10.82V20.65H99.93"/></g></svg>